# xmcd CD database file
#
# Track frame offsets:
#	150
#	13187
#	37680
#	55030
#	65987
#	81815
#	95437
#	116600
#	135982
#	155557
#	164712
#	194242
#	212702
#	224672
#	236322
#	246742
#	258797
#	274010
#	294265
#
# Disc length: 4360 seconds
#
# Revision: 0
# Processed by: cddbd v1.5PL3 Copyright (c) Steve Scherf et al.
# Submitted via: CDex 1.51
#
DISCID=1e110613
DTITLE=Omnibus - Hits on TV 2001
DYEAR=2004
DGENRE=Rock
TTITLE0=ジョニー・シンバル - 明日があるさ  -英語カヴァー・ヴァージョンｰ
TTITLE1=アバ - チキチータ  -TBS系金曜ドラマ「ストロベリー・オン・ザ・ショートケーキ」オープニング・テーマ-
TTITLE2=ドナ・サマー - ホット・スタッフ  -「ダイエットコカコーラ」CMイメージ・ソング-
TTITLE3=ルイ・アームストロング - ハロー・ドーリー  -「キリン一番搾り＜生＞」CMイメージ・ソング-
TTITLE4=ヴァンゲリス - タイトルズ（OST「炎のランナー」より）
TTITLE5=ジャクソン５ - 帰ってほしいの
TTITLE6=デバージ - アイ・ライク・イット
TTITLE7=シーナ・イーストン - 君の瞳に恋してる  TBS系”愛の劇場”「たのしい幼稚園」主題歌
TTITLE8=ジョー・ジャクソン - ステッピン・アウト
TTITLE9=トム・ジョーンズ - よくあることさ  -ホンダ「オデッセイ」CMイメージ・ソング-
TTITLE10=ティアーズ・フォー・フィアーズ - シャウト
TTITLE11=ヴァネッサ・サモロッシ - エヴリタイム・アイ・クローズ・マイ・アイズ  -高須クリニック CMイメージ・ソング-
TTITLE12=セルジオ・メンデス＆ブラジル’６６ - マシュ・ケ・ナダ
TTITLE13=プラターズ - １６トン  -モイスコ・ジャパン CMイメージ・ソング-
TTITLE14=ザ・カフ・リンクス - トレイシー  -「アリー・myラブ」挿入歌-
TTITLE15=デイブ・ディー・グルーブ - オーケイ！
TTITLE16=アバ - Ｓ．Ｏ．Ｓ．  -TBS系金曜ドラマ「ストロベリー・オン・ザ・ショートケーキ」エンディング・テーマ-
TTITLE17=The Orb - リトル・フラッフィ・クラウズ  -フォルクスワーゲン「ニュー・ビートル」CMイメージ・ソング-
TTITLE18=小曽根真 - ウィー・アー・オール・アローン  -「アサヒ黒生」CMイメージ・ソング-
EXTD=YEAR: 2004
EXTT0=
EXTT1=
EXTT2=
EXTT3=
EXTT4=
EXTT5=
EXTT6=
EXTT7=
EXTT8=
EXTT9=
EXTT10=
EXTT11=
EXTT12=
EXTT13=
EXTT14=
EXTT15=
EXTT16=
EXTT17=
EXTT18=
PLAYORDER=
